HIERARCHY
ROOT pelvis
{
  OFFSET 0 100 0
  CHANNELS 6 Xposition Yposition Zposition Zrotation Xrotation Yrotation
  JOINT pelvis_right_femur
  {
    OFFSET -10.78128 -3.44521 -0.5502486
    CHANNELS 3 Zrotation Xrotation Yrotation
    JOINT right_femur_tibia
    {
      OFFSET -0.8047443 -44.0398 -0.1307829
      CHANNELS 3 Zrotation Xrotation Yrotation
      JOINT right_tibia_foot
      {
        OFFSET 3.006224 -47.83518 -5
        CHANNELS 3 Zrotation Xrotation Yrotation
        End Site
        {
          OFFSET 0 -5 15
        }
      }
    }
  }
  JOINT pelvis_left_femur
  {
    OFFSET 10.78128 -3.44521 -0.5502486
    CHANNELS 3 Zrotation Xrotation Yrotation
    JOINT left_femur_tibia
    {
      OFFSET 0.8047443 -44.0398 -0.1307829
      CHANNELS 3 Zrotation Xrotation Yrotation
      JOINT left_tibia_foot
      {
        OFFSET -4.370144 -48.10324 -4.275266
        CHANNELS 3 Zrotation Xrotation Yrotation
        End Site
        {
          OFFSET 0 -5 15
        }
      }
    }
  }
  JOINT pelvis_spine1
  {
    OFFSET 0 6.468898 -3.129235
    CHANNELS 3 Zrotation Xrotation Yrotation
    JOINT spine1
    {
      OFFSET 0 23.15396 4.99043
      CHANNELS 3 Zrotation Xrotation Yrotation
      JOINT spine2
      {
        OFFSET 0 20.79997 -5.064912
        CHANNELS 3 Zrotation Xrotation Yrotation
        JOINT neck
        {
          OFFSET 0 14.38658 9.616178
          CHANNELS 3 Zrotation Xrotation Yrotation
          End Site
          {
            OFFSET 0 20 0
          }
        }
      }
      JOINT right_manubrium
      {
        OFFSET -5.722621 16.35077 3.967754
        CHANNELS 3 Zrotation Xrotation Yrotation
        JOINT right_clavicle
        {
          OFFSET -13.16364 1.694482 -4.693211
          CHANNELS 3 Zrotation Xrotation Yrotation
          JOINT right_humerus
          {
            OFFSET -28.5034 -0.3100689 -2.792744
            CHANNELS 3 Zrotation Xrotation Yrotation
            JOINT right_radius
            {
              OFFSET -25.15693 0.02248979 -1.271978
              CHANNELS 3 Zrotation Xrotation Yrotation
              End Site
              {
                OFFSET -15 0 0
              }
            }
          }
        }
      }
      JOINT left_manubrium
      {
        OFFSET 5.722621 16.35077 3.967754
        CHANNELS 3 Zrotation Xrotation Yrotation
        JOINT left_clavicle
        {
          OFFSET 13.16364 1.694482 -4.693211
          CHANNELS 3 Zrotation Xrotation Yrotation
          JOINT left_humerus
          {
            OFFSET 29.39168 -1.063119 -2.237045
            CHANNELS 3 Zrotation Xrotation Yrotation
            JOINT left_radius
            {
              OFFSET 24.59957 -0.9528479 0.9047498
              CHANNELS 3 Zrotation Xrotation Yrotation
              End Site
              {
                OFFSET 15 -0 -0
              }
            }
          }
        }
      }
    }
  }
}
MOTION
Frames: 19
Frame Time: 0.0416666666667
-520.6064 108.3785 -280.3246 7.667423 -1.585384 72.01945 1.682215 15.16332 -2.289969 -0 19.00623 -0 -15.49535 -11.30456 1.480941 1.063238 -18.07967 -7.211422 -0 15.19487 -0 -2.214966 0.1916158 16.12969 -0.6868609 -1.610381 8.038534 -0.5885531 11.98115 -3.79304 -0.6074842 21.5458 6.69399 7.454968 -12.83834 2.142811 4.253497 -24.37793 11.91248 80.43898 29.44574 -6.967756 -0 0 24.44046 -21.55611 9.103647 10.09198 5.542275 -22.0707 -6.936231 -95.90316 6.212176 33.77186 -0 0 4.113619 12.49903 13.44053 -3.696467
-514.3032 108.3687 -279.8532 7.650057 -1.667624 71.40764 1.682215 15.16332 -2.289969 -0 19.00623 -0 -15.49535 -11.30456 1.480941 1.063238 -18.07967 -7.211422 -0 15.19487 -0 -2.214966 0.1916158 16.12969 -0.6868609 -1.610381 8.038534 -0.5885531 11.98115 -3.79304 -0.6074842 21.5458 6.69399 7.454968 -12.83834 2.142811 4.253497 -24.37793 11.91248 80.43898 29.44574 -6.967756 -0 0 24.44046 -21.55611 9.103647 10.09198 5.542275 -22.0707 -6.936231 -95.90316 6.212176 33.77186 -0 0 4.113619 12.49903 13.44053 -3.696467
-508.0053 108.359 -279.3138 7.631813 -1.749674 70.79577 1.682215 15.16332 -2.289969 -0 19.00623 -0 -15.49535 -11.30456 1.480941 1.063238 -18.07967 -7.211422 -0 15.19487 -0 -2.214966 0.1916158 16.12969 -0.6868609 -1.610381 8.038534 -0.5885531 11.98115 -3.79304 -0.6074842 21.5458 6.69399 7.454968 -12.83834 2.142811 4.253497 -24.37793 11.91248 80.43898 29.44574 -6.967756 -0 0 24.44046 -21.55611 9.103647 10.09198 5.542275 -22.0707 -6.936231 -95.90316 6.212176 33.77186 -0 0 4.113619 12.49903 13.44053 -3.696467
-501.7137 108.3492 -278.7067 7.612692 -1.831524 70.18385 1.682215 15.16332 -2.289969 -0 19.00623 -0 -15.49535 -11.30456 1.480941 1.063238 -18.07967 -7.211422 -0 15.19487 -0 -2.214966 0.1916158 16.12969 -0.6868609 -1.610381 8.038534 -0.5885531 11.98115 -3.79304 -0.6074842 21.5458 6.69399 7.454968 -12.83834 2.142811 4.253497 -24.37793 11.91248 80.43898 29.44574 -6.967756 -0 0 24.44046 -21.55611 9.103647 10.09198 5.542275 -22.0707 -6.936231 -95.90316 6.212176 33.77186 -0 0 4.113619 12.49903 13.44053 -3.696467
-495.4289 108.3395 -278.0318 7.592697 -1.913166 69.57187 1.682215 15.16332 -2.289969 -0 19.00623 -0 -15.49535 -11.30456 1.480941 1.063238 -18.07967 -7.211422 -0 15.19487 -0 -2.214966 0.1916158 16.12969 -0.6868609 -1.610381 8.038534 -0.5885531 11.98115 -3.79304 -0.6074842 21.5458 6.69399 7.454968 -12.83834 2.142811 4.253497 -24.37793 11.91248 80.43898 29.44574 -6.967756 -0 0 24.44046 -21.55611 9.103647 10.09198 5.542275 -22.0707 -6.936231 -95.90316 6.212176 33.77186 -0 0 4.113619 12.49903 13.44053 -3.696467
-489.1518 108.3297 -277.2894 7.571829 -1.994589 68.95983 1.682215 15.16332 -2.289969 -0 19.00623 -0 -15.49535 -11.30456 1.480941 1.063238 -18.07967 -7.211422 -0 15.19487 -0 -2.214966 0.1916158 16.12969 -0.6868609 -1.610381 8.038534 -0.5885531 11.98115 -3.79304 -0.6074842 21.5458 6.69399 7.454968 -12.83834 2.142811 4.253497 -24.37793 11.91248 80.43898 29.44574 -6.967756 -0 0 24.44046 -21.55611 9.103647 10.09198 5.542275 -22.0707 -6.936231 -95.90316 6.212176 33.77186 -0 0 4.113619 12.49903 13.44053 -3.696467
-482.8831 108.3199 -276.4793 7.550092 -2.075785 68.34774 1.682215 15.16332 -2.289969 -0 19.00623 -0 -15.49535 -11.30456 1.480941 1.063238 -18.07967 -7.211422 -0 15.19487 -0 -2.214966 0.1916158 16.12969 -0.6868609 -1.610381 8.038534 -0.5885531 11.98115 -3.79304 -0.6074842 21.5458 6.69399 7.454968 -12.83834 2.142811 4.253497 -24.37793 11.91248 80.43898 29.44574 -6.967756 -0 0 24.44046 -21.55611 9.103647 10.09198 5.542275 -22.0707 -6.936231 -95.90316 6.212176 33.77186 -0 0 4.113619 12.49903 13.44053 -3.696467
-476.6234 108.3102 -275.6018 7.527486 -2.156745 67.73558 1.682215 15.16332 -2.289969 -0 19.00623 -0 -15.49535 -11.30456 1.480941 1.063238 -18.07967 -7.211422 -0 15.19487 -0 -2.214966 0.1916158 16.12969 -0.6868609 -1.610381 8.038534 -0.5885531 11.98115 -3.79304 -0.6074842 21.5458 6.69399 7.454968 -12.83834 2.142811 4.253497 -24.37793 11.91248 80.43898 29.44574 -6.967756 -0 0 24.44046 -21.55611 9.103647 10.09198 5.542275 -22.0707 -6.936231 -95.90316 6.212176 33.77186 -0 0 4.113619 12.49903 13.44053 -3.696467
-470.3736 108.3004 -274.6569 7.504015 -2.237458 67.12336 1.682215 15.16332 -2.289969 -0 19.00623 -0 -15.49535 -11.30456 1.480941 1.063238 -18.07967 -7.211422 -0 15.19487 -0 -2.214966 0.1916158 16.12969 -0.6868609 -1.610381 8.038534 -0.5885531 11.98115 -3.79304 -0.6074842 21.5458 6.69399 7.454968 -12.83834 2.142811 4.253497 -24.37793 11.91248 80.43898 29.44574 -6.967756 -0 0 24.44046 -21.55611 9.103647 10.09198 5.542275 -22.0707 -6.936231 -95.90316 6.212176 33.77186 -0 0 4.113619 12.49903 13.44053 -3.696467
-464.1343 108.2907 -273.6447 7.479681 -2.317916 66.51107 1.682215 15.16332 -2.289969 -0 19.00623 -0 -15.49535 -11.30456 1.480941 1.063238 -18.07967 -7.211422 -0 15.19487 -0 -2.214966 0.1916158 16.12969 -0.6868609 -1.610381 8.038534 -0.5885531 11.98115 -3.79304 -0.6074842 21.5458 6.69399 7.454968 -12.83834 2.142811 4.253497 -24.37793 11.91248 80.43898 29.44574 -6.967756 -0 0 24.44046 -21.55611 9.103647 10.09198 5.542275 -22.0707 -6.936231 -95.90316 6.212176 33.77186 -0 0 4.113619 12.49903 13.44053 -3.696467
-457.9062 108.2809 -272.5655 7.454486 -2.39811 65.89871 1.682215 15.16332 -2.289969 -0 19.00623 -0 -15.49535 -11.30456 1.480941 1.063238 -18.07967 -7.211422 -0 15.19487 -0 -2.214966 0.1916158 16.12969 -0.6868609 -1.610381 8.038534 -0.5885531 11.98115 -3.79304 -0.6074842 21.5458 6.69399 7.454968 -12.83834 2.142811 4.253497 -24.37793 11.91248 80.43898 29.44574 -6.967756 -0 0 24.44046 -21.55611 9.103647 10.09198 5.542275 -22.0707 -6.936231 -95.90316 6.212176 33.77186 -0 0 4.113619 12.49903 13.44053 -3.696467
-451.6901 108.2712 -271.4192 7.428433 -2.47803 65.28627 1.682215 15.16332 -2.289969 -0 19.00623 -0 -15.49535 -11.30456 1.480941 1.063238 -18.07967 -7.211422 -0 15.19487 -0 -2.214966 0.1916158 16.12969 -0.6868609 -1.610381 8.038534 -0.5885531 11.98115 -3.79304 -0.6074842 21.5458 6.69399 7.454968 -12.83834 2.142811 4.253497 -24.37793 11.91248 80.43898 29.44574 -6.967756 -0 0 24.44046 -21.55611 9.103647 10.09198 5.542275 -22.0707 -6.936231 -95.90316 6.212176 33.77186 -0 0 4.113619 12.49903 13.44053 -3.696467
-445.4868 108.2614 -270.206 7.401525 -2.557667 64.67377 1.682215 15.16332 -2.289969 -0 19.00623 -0 -15.49535 -11.30456 1.480941 1.063238 -18.07967 -7.211422 -0 15.19487 -0 -2.214966 0.1916158 16.12969 -0.6868609 -1.610381 8.038534 -0.5885531 11.98115 -3.79304 -0.6074842 21.5458 6.69399 7.454968 -12.83834 2.142811 4.253497 -24.37793 11.91248 80.43898 29.44574 -6.967756 -0 0 24.44046 -21.55611 9.103647 10.09198 5.542275 -22.0707 -6.936231 -95.90316 6.212176 33.77186 -0 0 4.113619 12.49903 13.44053 -3.696467
-439.2968 108.2517 -268.9261 7.373764 -2.637012 64.06119 1.682215 15.16332 -2.289969 -0 19.00623 -0 -15.49535 -11.30456 1.480941 1.063238 -18.07967 -7.211422 -0 15.19487 -0 -2.214966 0.1916158 16.12969 -0.6868609 -1.610381 8.038534 -0.5885531 11.98115 -3.79304 -0.6074842 21.5458 6.69399 7.454968 -12.83834 2.142811 4.253497 -24.37793 11.91248 80.43898 29.44574 -6.967756 -0 0 24.44046 -21.55611 9.103647 10.09198 5.542275 -22.0707 -6.936231 -95.90316 6.212176 33.77186 -0 0 4.113619 12.49903 13.44053 -3.696467
-433.1211 108.2419 -267.5796 7.345155 -2.716057 63.44853 1.682215 15.16332 -2.289969 -0 19.00623 -0 -15.49535 -11.30456 1.480941 1.063238 -18.07967 -7.211422 -0 15.19487 -0 -2.214966 0.1916158 16.12969 -0.6868609 -1.610381 8.038534 -0.5885531 11.98115 -3.79304 -0.6074842 21.5458 6.69399 7.454968 -12.83834 2.142811 4.253497 -24.37793 11.91248 80.43898 29.44574 -6.967756 -0 0 24.44046 -21.55611 9.103647 10.09198 5.542275 -22.0707 -6.936231 -95.90316 6.212176 33.77186 -0 0 4.113619 12.49903 13.44053 -3.696467
-426.9601 108.2322 -266.1666 7.315698 -2.794791 62.83579 1.682215 15.16332 -2.289969 -0 19.00623 -0 -15.49535 -11.30456 1.480941 1.063238 -18.07967 -7.211422 -0 15.19487 -0 -2.214966 0.1916158 16.12969 -0.6868609 -1.610381 8.038534 -0.5885531 11.98115 -3.79304 -0.6074842 21.5458 6.69399 7.454968 -12.83834 2.142811 4.253497 -24.37793 11.91248 80.43898 29.44574 -6.967756 -0 0 24.44046 -21.55611 9.103647 10.09198 5.542275 -22.0707 -6.936231 -95.90316 6.212176 33.77186 -0 0 4.113619 12.49903 13.44053 -3.696467
-420.8148 108.2224 -264.6874 7.285399 -2.873206 62.22297 1.682215 15.16332 -2.289969 -0 19.00623 -0 -15.49535 -11.30456 1.480941 1.063238 -18.07967 -7.211422 -0 15.19487 -0 -2.214966 0.1916158 16.12969 -0.6868609 -1.610381 8.038534 -0.5885531 11.98115 -3.79304 -0.6074842 21.5458 6.69399 7.454968 -12.83834 2.142811 4.253497 -24.37793 11.91248 80.43898 29.44574 -6.967756 -0 0 24.44046 -21.55611 9.103647 10.09198 5.542275 -22.0707 -6.936231 -95.90316 6.212176 33.77186 -0 0 4.113619 12.49903 13.44053 -3.696467
-414.6857 108.2127 -263.1421 7.254259 -2.951292 61.61006 1.682215 15.16332 -2.289969 -0 19.00623 -0 -15.49535 -11.30456 1.480941 1.063238 -18.07967 -7.211422 -0 15.19487 -0 -2.214966 0.1916158 16.12969 -0.6868609 -1.610381 8.038534 -0.5885531 11.98115 -3.79304 -0.6074842 21.5458 6.69399 7.454968 -12.83834 2.142811 4.253497 -24.37793 11.91248 80.43898 29.44574 -6.967756 -0 0 24.44046 -21.55611 9.103647 10.09198 5.542275 -22.0707 -6.936231 -95.90316 6.212176 33.77186 -0 0 4.113619 12.49903 13.44053 -3.696467
-408.5736 108.2029 -261.5309 7.222282 -3.029042 60.99707 1.682215 15.16332 -2.289969 -0 19.00623 -0 -15.49535 -11.30456 1.480941 1.063238 -18.07967 -7.211422 -0 15.19487 -0 -2.214966 0.1916158 16.12969 -0.6868609 -1.610381 8.038534 -0.5885531 11.98115 -3.79304 -0.6074842 21.5458 6.69399 7.454968 -12.83834 2.142811 4.253497 -24.37793 11.91248 80.43898 29.44574 -6.967756 -0 0 24.44046 -21.55611 9.103647 10.09198 5.542275 -22.0707 -6.936231 -95.90316 6.212176 33.77186 -0 0 4.113619 12.49903 13.44053 -3.696467
